<svg width="1604" height="800" viewBox="0 0 1604 800" fill="none" xmlns="http://www.w3.org/2000/svg">
<path d="M821.124 392L882.241 389.838C885.811 389.838 889.011 386.627 889.011 382.736L890.427 290.404C903.906 297.197 920.277 300.718 936.28 300.718C981.763 300.718 1023 267.923 1023 195.539C1023 129.579 980.717 89.6199 930.986 89.6199C916.4 89.6199 904.336 91.7814 894.735 95.6723V82.4556C895.104 78.503 891.904 75.6619 888.334 76.0325L819.77 78.8734C816.2 79.244 813 82.4557 813 85.976L814.785 385.144C814.785 389.097 817.616 391.938 821.186 391.938L821.124 392ZM917.815 163.115C934.495 163.115 944.465 174.911 944.465 194.86C944.465 220.552 934.187 234.819 918.185 234.819C904.336 234.819 892.581 222.714 892.581 197.392C892.581 180.964 901.813 163.177 917.815 163.177V163.115Z" fill="#231F20"/>
<path d="M1079.32 249C1101.93 249 1120 229.724 1120 205.815C1120 181.905 1101.99 163 1079.32 163C1056.65 163 1039 182.276 1039 205.815C1039 229.353 1057.01 249 1079.32 249Z" fill="#231F20"/>
<path d="M1039.39 450.201L1103.99 452H1104.36C1106.83 452 1109.36 449.829 1109.36 446.976L1114 270.451C1114 267.598 1111.53 265.055 1108.62 265.055L1034.01 264C1031.16 264 1029 266.171 1029 269.024L1033.64 444.867C1034.01 447.72 1036.11 450.263 1039.32 450.263L1039.39 450.201Z" fill="#231F20"/>
<path d="M1157.52 415.888L1224.33 417.682C1227.18 417.682 1229.35 415.208 1229.35 412.301L1228.97 311.253C1228.6 281.631 1236.83 269.82 1255.02 269.82C1278.59 269.82 1281.07 293.381 1281.07 358.005C1281.07 386.205 1280.7 402.654 1278.9 414.775V415.146C1278.9 416.568 1279.95 417.991 1281.75 417.991L1353.51 423H1353.89C1356.36 423 1358.15 421.578 1358.53 419.413C1359.95 409.395 1361 384.411 1361 340.875C1361 238.034 1327.1 213.792 1274.2 213.792C1255.64 213.792 1240.61 217.75 1228.48 223.81V212.741C1228.11 209.525 1226.01 207.36 1223.1 207.051L1152.01 206C1149.17 206 1147 208.164 1147 211.009V211.38L1152.01 410.57C1152.01 413.415 1154.49 415.95 1157.39 415.95L1157.52 415.888Z" fill="#231F20"/>
<path d="M1601.72 371.177L1524.37 307.632C1522.95 306.581 1522.21 304.789 1522.21 302.996C1522.21 301.203 1522.95 299.782 1524.37 298.36L1598.88 230.92C1599.93 229.869 1600.3 228.757 1600.3 227.706C1600.3 225.913 1598.88 224.862 1596.41 223.75L1537.27 200.569H1535.85C1532.27 200.569 1528.01 202.733 1525.54 204.834L1476.71 251.257C1475.66 252.308 1474.55 253.05 1473.87 253.05C1472.82 253.05 1472.08 251.999 1472.08 249.835V249.465L1477.08 117.799V117.429C1477.45 113.843 1474.24 111 1470.66 111H1470.29L1401.89 120.643C1397.94 121.014 1394.79 123.857 1394.79 127.752L1393 393.245C1393 397.201 1396.21 400.354 1399.79 400.354L1460.04 401.776C1463.99 401.776 1467.14 398.932 1467.14 394.976V353.931C1467.14 351.459 1468.19 350.346 1469.61 350.346C1470.35 350.346 1471.4 350.717 1472.45 351.768L1544.8 418.836C1546.22 419.887 1548.38 421 1550.17 421C1551.96 421 1553.75 420.258 1555.17 419.207L1601.84 379.955C1603.26 378.533 1604 377.112 1604 375.319C1604 373.897 1603.63 372.105 1601.84 371.054L1601.72 371.177Z" fill="#231F20"/>
<path d="M949.715 482.797L958.928 444.657C959.299 442.428 958.186 442.057 956.702 440.199C941.923 423.916 911.624 415 895.362 415C859.498 415 828.086 440.571 827.344 488.679L826.973 535.672L813.307 536.044C811.081 536.044 809.597 537.901 809.597 539.758L807 588.609V588.981C807 590.838 808.855 592.324 810.71 592.324L826.602 593.067L826.231 699.313C825.86 702.657 828.086 706 831.796 706H832.167L903.524 702.657H903.895C907.234 702.657 909.831 699.685 909.831 696.341L909.089 595.668L933.514 596.782C935.369 596.782 936.853 594.925 937.224 593.067L941.676 533.072V532.7C941.676 530.843 939.821 529.357 937.966 529.357L908.78 531.214V507.872C908.78 486.016 916.571 476.048 926.527 476.048C932.834 476.048 939.45 479.391 946.128 486.016C946.376 486.264 946.623 486.388 946.87 486.388C947.983 486.388 950.209 484.531 950.209 483.045H949.838V482.673L949.715 482.797Z" fill="#231F20"/>
<path d="M1116.02 560.282C1116.39 551.42 1119 502.836 1119 495.09V494.718C1119 492.859 1117.14 492.115 1116.02 491.744C1113.04 491.372 1109.69 491 1105.66 491C1088.96 491 1064.44 496.949 1051.47 515.106C1051.1 515.85 1050.72 516.221 1050.72 516.221C1050.35 516.221 1050.35 515.478 1050.35 514.734V505.873C1050.35 501.783 1049.23 500.667 1044.39 500.667L980.586 497.693H980.214C977.234 497.693 975 499.923 975 502.898V503.27L981.703 704.423C981.703 707.769 984.31 710 987.29 710H987.662L1050.72 708.513C1054.08 708.513 1056.68 705.91 1056.68 702.564C1056.68 664.762 1056.31 635.513 1056.31 635.513C1055.94 589.965 1072.63 564.744 1112.36 563.628C1114.59 563.256 1116.08 562.141 1116.08 560.282H1116.02Z" fill="#231F20"/>
<path d="M1245.69 677C1301.66 677 1342 636.405 1342 566.69C1342 490.683 1299.05 452 1239.74 452C1175.66 452 1136 495.125 1136 566.69C1136 638.256 1189.73 677 1245.69 677ZM1238.32 533.869C1253.5 533.869 1266.08 547.133 1266.08 566.32C1266.08 586.618 1255.73 600.252 1239.43 600.252C1223.13 600.252 1210.18 588.098 1210.18 568.541C1210.18 548.984 1219.79 533.869 1238.32 533.869Z" fill="#231F20"/>
<path d="M1570.74 477.598L1500.36 475C1496.65 475 1494.04 477.598 1494.04 481.309L1494.41 492.01C1481.84 484.959 1466.66 479.825 1450.37 479.825C1401.11 479.825 1357 520.526 1357 581.887C1357 646.959 1393.68 688.031 1449.25 688.031C1469.26 688.031 1486.3 680.979 1497.39 670.278L1497.76 676.588L1497.02 683.639C1494.41 715.433 1486.3 727.619 1462.94 727.619C1445.9 727.619 1432.96 715.433 1429.24 711.722C1428.5 710.979 1427.75 710.608 1427.38 710.608C1425.52 710.608 1424.41 712.093 1424.41 714.32L1423.29 776.794V777.165C1423.29 779.021 1423.66 780.876 1425.52 782.361C1433.7 789.783 1455.14 799 1479.24 799C1526.26 799 1564.05 771.66 1567.03 710.608L1577 484.278C1577 480.567 1574.4 477.969 1570.68 477.598H1570.74ZM1470.75 616.278C1455.94 616.278 1443.36 604.464 1443.36 585.598C1443.36 566.732 1454.45 553.062 1471.12 553.062C1483.7 553.062 1495.96 561.227 1495.96 571.928L1496.34 588.938C1496.34 607.062 1481.53 616.278 1470.75 616.278Z" fill="#231F20"/>
<path d="M1054.02 746.148H1086.61V751.96H1060.27V769.334H1084.75V775.146H1060.27V798.765H1054.02V746.21V746.148Z" fill="#010101"/>
<path d="M1100.33 746.148H1106.57V798.703H1100.33V746.148Z" fill="#010101"/>
<path d="M1124.69 746.148H1130.94V792.891H1154.99V798.703H1124.69V746.148Z" fill="#010101"/>
<path d="M1166.8 746.148H1176.07L1193.88 787.326H1194L1211.93 746.148H1220.96V798.703H1214.71V754.619H1214.59L1195.73 798.703H1191.96L1173.1 754.619H1172.98V798.703H1166.74V746.148H1166.8Z" fill="#010101"/>
<path d="M1264.11 755.422C1263.06 753.753 1261.7 752.516 1259.97 751.774C1258.24 751.032 1256.45 750.6 1254.53 750.6C1253.17 750.6 1251.81 750.785 1250.45 751.094C1249.09 751.465 1247.92 751.96 1246.86 752.64C1245.81 753.32 1244.95 754.248 1244.33 755.361C1243.71 756.473 1243.34 757.834 1243.34 759.379C1243.34 760.554 1243.53 761.605 1243.9 762.532C1244.27 763.46 1244.89 764.264 1245.69 765.006C1246.56 765.748 1247.67 766.428 1249.09 767.108C1250.51 767.726 1252.31 768.406 1254.35 769.025C1256.39 769.643 1258.36 770.385 1260.22 771.127C1262.14 771.869 1263.81 772.796 1265.29 773.971C1266.77 775.084 1267.89 776.506 1268.75 778.237C1269.62 779.968 1270.05 782.071 1270.05 784.667C1270.05 787.264 1269.56 789.552 1268.5 791.469C1267.45 793.385 1266.09 794.993 1264.36 796.229C1262.63 797.466 1260.71 798.455 1258.49 799.073C1256.26 799.692 1253.97 800.001 1251.56 800.001C1250.02 800.001 1248.47 799.877 1246.99 799.568C1245.44 799.321 1243.96 798.888 1242.6 798.331C1241.18 797.775 1239.88 797.033 1238.64 796.106C1237.4 795.178 1236.35 794.065 1235.43 792.705L1240.74 788.315C1241.86 790.232 1243.46 791.716 1245.5 792.705C1247.54 793.694 1249.71 794.189 1251.93 794.189C1253.29 794.189 1254.59 794.003 1255.95 793.571C1257.31 793.2 1258.55 792.581 1259.6 791.839C1260.65 791.098 1261.58 790.108 1262.26 788.995C1262.94 787.883 1263.31 786.522 1263.31 785.038C1263.31 783.431 1263.06 782.07 1262.51 781.081C1261.95 780.092 1261.15 779.165 1259.97 778.423C1258.8 777.681 1257.38 777 1255.64 776.444C1253.91 775.826 1251.87 775.146 1249.58 774.342C1247.73 773.724 1246 773.044 1244.39 772.302C1242.78 771.56 1241.42 770.57 1240.25 769.457C1239.07 768.345 1238.15 766.984 1237.53 765.438C1236.91 763.893 1236.54 762.038 1236.54 759.812C1236.54 757.277 1237.03 755.113 1238.02 753.196C1239.01 751.342 1240.37 749.734 1242.04 748.497C1243.71 747.261 1245.63 746.272 1247.73 745.653C1249.83 745.035 1252.06 744.664 1254.41 744.664C1257.38 744.664 1260.1 745.097 1262.51 746.024C1264.98 746.952 1267.14 748.559 1269.06 750.785L1263.93 755.237L1264.11 755.422Z" fill="#010101"/>
<path d="M17.2176 528.583C38.247 606.968 114.695 714.182 227.017 755.014C337.916 795.351 446.712 808.466 596.887 706.882C909.298 495.547 682.427 92.0551 682.427 92.0551L635.049 108.759L568.745 134.31L646.121 62.2974C646.121 62.2974 568.126 -22.0882 298.888 5.56597C82.4088 27.776 19.2587 222.16 9.2388 275.55C-15.5017 407.14 17.2795 528.583 17.2795 528.583H17.2176Z" fill="#231F20"/>
<path d="M598.796 544.372C588.847 544.681 565.86 551.484 557.518 550.061C549.175 548.639 546.457 543.815 554.181 541.217C561.905 538.682 582.668 539.486 595.15 536.084C607.632 532.683 619.497 526.436 619.806 519.88C620.053 513.324 608.436 512.458 599.599 513.881C590.763 515.303 562.214 526.683 545.344 534.105C528.475 541.527 515.436 545.794 501.903 545.485C488.309 545.176 487.258 542.083 491.646 539.238C496.033 536.393 557.27 509.675 599.599 441.644C641.928 373.612 631.423 362.232 624.811 352.893C618.137 343.493 598.487 337.246 571.359 346.894C544.232 356.542 492.202 389.569 492.202 389.569C492.202 389.569 489.73 384.992 485.281 380.725C485.281 380.725 520.441 347.698 522.913 296.489C525.138 251.279 505.735 230.746 505.735 230.746C505.735 230.746 539.227 217.944 547.507 180.959C555.787 143.975 535.025 122.081 502.645 119.236C470.265 116.391 440.604 139.707 436.773 166.734C436.773 166.734 382.765 152.819 332.96 172.981C332.96 172.981 291.681 185.226 259.054 221.098C259.054 221.098 234.708 197.781 197.879 213.676C161.05 229.633 166.982 271.936 174.088 284.243C181.194 296.551 189.042 317.27 216.973 318.94C216.973 318.94 213.636 352.522 234.151 375.591C234.151 375.591 203.131 361.923 169.083 385.239C135.034 408.556 170.442 456.673 184.284 468.609C198.126 480.546 250.712 507.882 255.408 513.015C260.105 518.148 258.375 525.756 249.291 524.952C240.269 524.148 224.944 514.994 214.934 506.769C204.985 498.543 176.436 478.876 160.679 479.185C144.921 479.494 144.612 487.163 150.73 490.256C156.848 493.41 198.126 511.778 203.625 516.726C209.125 521.674 211.35 525.57 206.653 525.261C201.957 524.952 169.392 512.211 151.533 512.768C133.675 513.324 131.574 512.768 131.018 518.767C130.462 524.766 142.944 532.435 157.033 533.301C171.122 534.167 191.885 531.322 199.362 535.589C206.839 539.857 205.479 546.412 200.474 548.701C195.469 550.989 179.464 547.588 164.757 549.01C150.112 550.433 143.933 554.762 142.635 556.432C141.337 558.04 135.158 564.41 161.482 567.255C187.806 570.1 209.125 562.678 238.415 555.566C267.767 548.453 279.879 542.145 276.048 564.657C273.267 580.861 233.966 604.487 233.719 607.641C233.472 610.795 233.163 619.577 241.443 616.176C249.723 612.774 271.042 584.881 274.379 585.747C277.716 586.613 279.941 584.634 276.851 597.127C273.823 609.62 268.323 628.854 270.486 635.843C272.649 642.77 275.491 645.491 281.547 639.554C287.665 633.555 288.221 619.083 287.912 611.104C287.665 603.126 283.772 590.88 287.912 585.809C292.052 580.676 296.748 587.231 298.17 590.076C299.529 592.921 303.607 608.816 306.759 613.702C309.91 618.588 310.652 625.948 318.129 621.68C325.606 617.413 305.647 580.428 302.619 575.295C299.591 570.162 287.294 553.339 284.884 533.486C284.884 533.486 324.494 574.738 362.929 578.449C401.427 582.16 424.105 569.048 424.105 569.048C424.105 569.048 408.904 583.582 396.174 591.499C383.445 599.477 362.126 616.794 360.767 622.237C359.407 627.617 366.884 631.39 372.94 625.082C378.996 618.773 390.366 605.724 398.708 602.322C406.988 598.921 404.826 611.414 400.933 625.638C397.04 639.863 399.573 654.954 402.601 659.221C405.629 663.489 411.19 664.045 414.218 652.109C417.246 640.172 413.415 620.814 417.555 609.434C421.695 598.055 429.481 608.569 431.15 611.723C432.818 614.877 442.52 633.369 447.216 634.173C451.912 635.039 457.474 634.73 457.474 625.082C457.474 615.434 435.908 606.899 433.683 594.9C431.459 582.964 443.076 567.317 457.783 564.719C472.428 562.183 501.224 562.183 523.655 570.409C546.086 578.635 581.246 593.725 600.094 590.633C618.941 587.479 615.604 584.634 609.795 578.697C603.986 572.697 572.41 569.605 564.933 568.739C557.456 567.873 541.699 568.43 547.754 561.318C547.754 561.318 571.854 562.74 593.173 562.74C614.491 562.74 620.053 563.297 620.609 553.896C621.165 544.495 608.683 544.248 598.734 544.495L598.796 544.372ZM472.181 133.894C471.439 136.058 471.007 138.408 471.007 140.882C471.007 142.181 471.13 143.418 471.316 144.655C472.613 153.375 479.04 159.993 486.826 159.993C495.539 159.993 502.645 151.705 502.645 141.439C502.645 140.14 502.521 138.903 502.274 137.666C501.656 133.646 499.988 130.121 497.578 127.462C521.739 128.451 542.873 148.118 540.772 172.115C538.671 196.545 518.341 215.408 495.6 216.83C470.698 218.376 450.429 196.792 450.429 172.115C450.429 155.973 459.08 141.81 472.119 133.955L472.181 133.894ZM220.557 304.282C198.002 304.282 183.666 286.655 183.666 262.535C183.666 250.289 188.115 238.971 195.407 230.808C195.407 230.931 195.407 231.055 195.407 231.179C195.345 231.921 195.222 232.725 195.222 233.529C195.222 233.529 195.222 233.529 195.222 233.591C195.222 233.776 195.222 233.9 195.222 234.086C195.222 244.105 202.142 252.269 210.67 252.269C219.197 252.269 226.118 244.105 226.118 234.086C226.118 234.086 226.118 233.962 226.118 233.9C226.118 233.776 226.118 233.653 226.118 233.529C226.118 232.91 225.995 232.292 225.933 231.612C225.933 231.612 225.933 231.612 225.933 231.55C225.439 225.922 222.781 221.098 218.95 218.191C220.371 218.005 221.854 217.882 223.338 217.882C245.892 217.882 264.121 237.425 264.121 261.607C264.121 285.79 243.05 304.22 220.557 304.22V304.282ZM376.524 334.092C376.524 334.092 309.107 351.904 253.555 324.258C253.555 324.258 323.381 347.575 386.04 325.495C448.699 303.416 491.707 245.156 491.707 245.156C491.707 245.156 457.103 316.96 376.524 334.092Z" fill="#4FB851"/>
</svg>
