<svg width="54" height="58" viewBox="0 0 54 58" fill="none" xmlns="http://www.w3.org/2000/svg">
<path d="M49.7019 45.1547C48.6419 45.1847 46.202 45.9147 45.322 45.7547C44.442 45.5947 44.142 45.0947 44.972 44.8147C45.792 44.5447 48.002 44.6347 49.322 44.2747C50.642 43.9147 51.912 43.2447 51.942 42.5547C51.972 41.8647 50.732 41.7647 49.792 41.9247C48.852 42.0747 45.8219 43.2847 44.0219 44.0747C42.2319 44.8647 40.8419 45.3147 39.4019 45.2847C37.9619 45.2547 37.842 44.9247 38.312 44.6247C38.782 44.3247 45.282 41.4847 49.782 34.2647C54.282 27.0447 53.1619 25.8347 52.4619 24.8347C51.7519 23.8347 49.672 23.1747 46.782 24.2047C43.902 25.2347 38.3719 28.7347 38.3719 28.7347C38.3719 28.7347 38.112 28.2547 37.632 27.7947C37.632 27.7947 41.372 24.2947 41.632 18.8547C41.862 14.0547 39.812 11.8747 39.812 11.8747C39.812 11.8747 43.372 10.5147 44.252 6.58467C45.132 2.65467 42.9319 0.33467 39.4819 0.0246696C36.0419 -0.27533 32.8919 2.20469 32.4819 5.07469C32.4819 5.07469 26.7419 3.59469 21.4519 5.73469C21.4519 5.73469 17.072 7.03468 13.602 10.8447C13.602 10.8447 11.012 8.36467 7.10196 10.0547C3.19196 11.7447 3.82196 16.2447 4.57196 17.5447C5.32196 18.8447 6.16196 21.0447 9.13196 21.2347C9.13196 21.2347 8.78194 24.8047 10.9519 27.2447C10.9519 27.2447 7.66196 25.7947 4.04196 28.2747C0.421964 30.7547 4.19196 35.8547 5.66196 37.1247C7.13196 38.3947 12.722 41.2947 13.222 41.8347C13.722 42.3747 13.532 43.1947 12.572 43.1047C11.612 43.0147 9.98194 42.0447 8.92194 41.1747C7.86194 40.2947 4.83195 38.2147 3.15195 38.2447C1.47195 38.2747 1.44195 39.0947 2.09195 39.4247C2.74195 39.7547 7.13195 41.7047 7.71195 42.2347C8.29195 42.7647 8.53195 43.1747 8.03195 43.1447C7.53195 43.1147 4.07195 41.7547 2.18195 41.8147C0.281947 41.8747 0.0619549 41.8147 0.0019549 42.4447C-0.0580451 43.0747 1.27194 43.8947 2.77194 43.9847C4.27194 44.0747 6.48194 43.7747 7.27194 44.2247C8.06194 44.6747 7.92194 45.3747 7.39194 45.6147C6.86194 45.8547 5.15195 45.4947 3.59195 45.6447C2.03195 45.7947 1.38195 46.2547 1.24195 46.4347C1.10195 46.6047 0.451945 47.2847 3.24195 47.5847C6.03194 47.8847 8.30194 47.1047 11.4219 46.3447C14.5419 45.5847 15.8319 44.9247 15.4219 47.3147C15.1319 49.0347 10.9519 51.5447 10.9219 51.8747C10.8919 52.2047 10.8619 53.1447 11.7419 52.7847C12.6219 52.4247 14.8919 49.4647 15.2419 49.5547C15.5919 49.6447 15.832 49.4347 15.502 50.7647C15.182 52.0947 14.592 54.1347 14.822 54.8747C15.052 55.6147 15.352 55.9047 16.002 55.2647C16.652 54.6247 16.7119 53.0847 16.6819 52.2447C16.6519 51.3947 16.2419 50.0947 16.6819 49.5547C17.1219 49.0147 17.6219 49.7047 17.7719 50.0047C17.9219 50.3047 18.3519 51.9947 18.6819 52.5147C19.0119 53.0347 19.0919 53.8147 19.8919 53.3647C20.6819 52.9147 18.5719 48.9847 18.2419 48.4447C17.9219 47.9047 16.6119 46.1147 16.3619 44.0047C16.3619 44.0047 20.572 48.3847 24.662 48.7747C28.752 49.1647 31.162 47.7747 31.162 47.7747C31.162 47.7747 29.542 49.3147 28.192 50.1647C26.842 51.0147 24.5719 52.8547 24.4219 53.4247C24.2719 53.9947 25.0719 54.3947 25.7119 53.7247C26.3519 53.0547 27.5619 51.6747 28.4519 51.3047C29.3319 50.9447 29.102 52.2747 28.692 53.7847C28.282 55.2947 28.542 56.8947 28.872 57.3547C29.192 57.8047 29.7819 57.8647 30.1119 56.5947C30.4319 55.3247 30.0219 53.2747 30.4619 52.0647C30.9019 50.8547 31.7319 51.9747 31.9019 52.3047C32.0719 52.6347 33.1119 54.6047 33.6119 54.6947C34.1119 54.7847 34.7019 54.7547 34.7019 53.7247C34.7019 52.6947 32.4119 51.7947 32.1719 50.5247C31.9319 49.2547 33.1719 47.5947 34.7319 47.3247C36.2919 47.0547 39.3519 47.0547 41.7319 47.9247C44.1119 48.8047 47.852 50.4047 49.852 50.0747C51.852 49.7447 51.502 49.4447 50.882 48.8047C50.262 48.1747 46.9119 47.8347 46.1119 47.7447C45.3119 47.6547 43.642 47.7147 44.292 46.9547C44.292 46.9547 46.8519 47.1047 49.1119 47.1047C51.3719 47.1047 51.9619 47.1647 52.0219 46.1647C52.0819 45.1647 50.7519 45.1347 49.7019 45.1647V45.1547ZM36.252 1.57469C36.172 1.80469 36.1219 2.05468 36.1219 2.31468C36.1219 2.45468 36.132 2.58467 36.162 2.71467C36.302 3.63467 36.982 4.34468 37.812 4.34468C38.742 4.34468 39.4919 3.46468 39.4919 2.37468C39.4919 2.23468 39.4819 2.10468 39.4519 1.97468C39.3919 1.55468 39.2119 1.17466 38.9519 0.894665C41.5219 1.00466 43.762 3.09469 43.542 5.63469C43.322 8.22469 41.1519 10.2247 38.7419 10.3847C36.0919 10.5547 33.942 8.26469 33.942 5.63469C33.942 3.91469 34.8619 2.41467 36.2419 1.58467L36.252 1.57469ZM9.51193 19.6647C7.12193 19.6647 5.59195 17.7947 5.59195 15.2347C5.59195 13.9347 6.06195 12.7347 6.84195 11.8647C6.84195 11.8747 6.84195 11.8947 6.84195 11.9047C6.84195 11.9847 6.82196 12.0647 6.82196 12.1547C6.82196 12.1747 6.82196 12.1847 6.82196 12.2047C6.82196 13.2747 7.56195 14.1347 8.46195 14.1347C9.36195 14.1347 10.102 13.2747 10.102 12.2047C10.102 12.2047 10.102 12.1947 10.102 12.1847C10.102 12.1747 10.102 12.1547 10.102 12.1447C10.102 12.0747 10.0919 12.0147 10.0819 11.9447C10.0319 11.3547 9.75195 10.8347 9.34195 10.5247C9.49195 10.5047 9.65195 10.4947 9.81195 10.4947C12.202 10.4947 14.1419 12.5747 14.1419 15.1347C14.1419 17.6947 11.9019 19.6547 9.51193 19.6547V19.6647ZM26.0819 22.8347C26.0819 22.8347 18.9119 24.7247 13.0119 21.7947C13.0119 21.7947 20.432 24.2747 27.092 21.9247C33.752 19.5847 38.322 13.3947 38.322 13.3947C38.322 13.3947 34.6419 21.0147 26.0819 22.8347Z" fill="#67C54C"/>
<path d="M9.51193 19.6647C7.12193 19.6647 5.59195 17.7947 5.59195 15.2347C5.59195 13.9347 6.06195 12.7347 6.84195 11.8647V11.9047C6.84195 11.9847 6.82196 12.0647 6.82196 12.1547V12.2047C6.82196 13.2747 7.56195 14.1347 8.46195 14.1347C9.36195 14.1347 10.102 13.2747 10.102 12.2047V12.1847V12.1447C10.102 12.0747 10.0919 12.0147 10.0819 11.9447C10.0319 11.3547 9.75195 10.8347 9.34195 10.5247C9.49195 10.5047 9.65195 10.4947 9.81195 10.4947C12.202 10.4947 14.1419 12.5747 14.1419 15.1347C14.1419 17.6947 11.9019 19.6547 9.51193 19.6547V19.6647Z" fill="#1E1E1E"/>
<path d="M36.252 1.57469C36.172 1.80469 36.1219 2.05468 36.1219 2.31468C36.1219 2.45468 36.132 2.58467 36.162 2.71467C36.302 3.63467 36.982 4.34468 37.812 4.34468C38.742 4.34468 39.4919 3.46468 39.4919 2.37468C39.4919 2.23468 39.4819 2.10468 39.4519 1.97468C39.3919 1.55468 39.2119 1.17466 38.9519 0.894665C41.5219 1.00466 43.762 3.09469 43.542 5.63469C43.322 8.22469 41.1519 10.2247 38.7419 10.3847C36.0919 10.5547 33.942 8.26469 33.942 5.63469C33.942 3.91469 34.8619 2.41467 36.2419 1.58467L36.252 1.57469Z" fill="#1E1E1E"/>
<path d="M26.0819 22.8347C26.0819 22.8347 18.9119 24.7247 13.0119 21.7947C13.0119 21.7947 20.432 24.2747 27.092 21.9247C33.752 19.5847 38.322 13.3947 38.322 13.3947C38.322 13.3947 34.6419 21.0147 26.0819 22.8347Z" fill="#1E1E1E"/>
</svg>
