<svg width="81" height="84" viewBox="0 0 81 84" fill="none" xmlns="http://www.w3.org/2000/svg">
<path d="M1.82866 56.1024C4.06866 64.4224 12.1787 75.8024 24.0987 80.1324C36.0187 84.4624 47.4187 85.8023 63.3687 75.0223C96.5387 52.5923 72.4487 9.76233 72.4487 9.76233L67.4187 11.5424L60.3787 14.2523L68.5987 6.61233C68.5987 6.61233 60.3187 -2.34766 31.7287 0.592344C8.74867 2.95234 2.03866 23.5823 0.978657 29.2423C-1.64134 43.2023 1.82866 56.1024 1.82866 56.1024Z" fill="#231F20"/>
<path d="M63.5789 57.7719C62.5189 57.8019 60.0789 58.5319 59.1989 58.3719C58.3189 58.2119 58.0189 57.7119 58.8489 57.4319C59.6689 57.1619 61.8789 57.2519 63.1989 56.8919C64.5189 56.5319 65.7889 55.8619 65.8189 55.1719C65.8489 54.4819 64.6089 54.3819 63.6689 54.5419C62.7289 54.6919 59.6989 55.9019 57.8989 56.6919C56.1089 57.4819 54.7189 57.9319 53.2789 57.9019C51.8389 57.8719 51.7189 57.5419 52.1889 57.2419C52.6589 56.9419 59.1589 54.1019 63.6589 46.8819C68.1589 39.6619 67.0389 38.4519 66.3389 37.4519C65.6289 36.4519 63.5489 35.7919 60.6589 36.8219C57.7789 37.8519 52.2489 41.3519 52.2489 41.3519C52.2489 41.3519 51.9889 40.8719 51.5089 40.4119C51.5089 40.4119 55.2489 36.9119 55.5089 31.4719C55.7389 26.6719 53.6889 24.4919 53.6889 24.4919C53.6889 24.4919 57.2489 23.1319 58.1289 19.2019C59.0089 15.2719 56.8089 12.9519 53.3589 12.6419C49.9189 12.3419 46.7689 14.8219 46.3589 17.6919C46.3589 17.6919 40.6189 16.2119 35.3289 18.3519C35.3289 18.3519 30.9489 19.6519 27.4789 23.4619C27.4789 23.4619 24.8889 20.9819 20.9789 22.6719C17.0689 24.3619 17.6989 28.8619 18.4489 30.1619C19.1989 31.4619 20.0389 33.6619 23.0089 33.8519C23.0089 33.8519 22.6589 37.4219 24.8289 39.8619C24.8289 39.8619 21.5389 38.4119 17.9189 40.8919C14.2989 43.3719 18.0689 48.4719 19.5389 49.7419C21.0089 51.0119 26.5989 53.9119 27.0989 54.4519C27.5989 54.9919 27.4089 55.8119 26.4489 55.7219C25.4889 55.6319 23.8589 54.6619 22.7989 53.7919C21.7389 52.9119 18.7089 50.8319 17.0289 50.8619C15.3489 50.8919 15.3189 51.7119 15.9689 52.0419C16.6189 52.3719 21.0089 54.3219 21.5889 54.8519C22.1689 55.3819 22.4089 55.7919 21.9089 55.7619C21.4089 55.7319 17.9489 54.3719 16.0589 54.4319C14.1589 54.4919 13.9389 54.4319 13.8789 55.0619C13.8189 55.6919 15.1489 56.5119 16.6489 56.6019C18.1489 56.6919 20.3589 56.3919 21.1489 56.8419C21.9389 57.2919 21.7989 57.9919 21.2689 58.2319C20.7389 58.4719 19.0289 58.1119 17.4689 58.2619C15.9089 58.4119 15.2589 58.8719 15.1189 59.0519C14.9789 59.2219 14.3289 59.9019 17.1189 60.2019C19.9089 60.5019 22.1789 59.7219 25.2989 58.9619C28.4189 58.2019 29.7089 57.5419 29.2989 59.9319C29.0089 61.6519 24.8289 64.1619 24.7989 64.4919C24.7689 64.8219 24.7389 65.7619 25.6189 65.4019C26.4989 65.0419 28.7689 62.0819 29.1189 62.1719C29.4689 62.2619 29.7089 62.0519 29.3789 63.3819C29.0589 64.7119 28.4689 66.7519 28.6989 67.4919C28.9289 68.2319 29.2289 68.5219 29.8789 67.8819C30.5289 67.2419 30.5889 65.7019 30.5589 64.8619C30.5289 64.0119 30.1189 62.7119 30.5589 62.1719C30.9989 61.6319 31.4989 62.3219 31.6489 62.6219C31.7989 62.9219 32.2289 64.6119 32.5589 65.1319C32.8889 65.6519 32.9689 66.4319 33.7689 65.9819C34.5589 65.5319 32.4489 61.6019 32.1189 61.0619C31.7989 60.5219 30.4889 58.7319 30.2389 56.6219C30.2389 56.6219 34.4489 61.0019 38.5389 61.3919C42.6289 61.7819 45.0389 60.3919 45.0389 60.3919C45.0389 60.3919 43.4189 61.9319 42.0689 62.7819C40.7189 63.6319 38.4489 65.4719 38.2989 66.0419C38.1489 66.6119 38.9489 67.0119 39.5889 66.3419C40.2289 65.6719 41.4389 64.2919 42.3289 63.9219C43.2089 63.5619 42.9789 64.8919 42.5689 66.4019C42.1589 67.9119 42.4189 69.5119 42.7489 69.9719C43.0689 70.4219 43.6589 70.4819 43.9889 69.2119C44.3089 67.9419 43.8989 65.8919 44.3389 64.6819C44.7789 63.4719 45.6089 64.5919 45.7789 64.9219C45.9489 65.2519 46.9889 67.2219 47.4889 67.3119C47.9889 67.4019 48.5789 67.3719 48.5789 66.3419C48.5789 65.3119 46.2889 64.4119 46.0489 63.1419C45.8089 61.8719 47.0489 60.2119 48.6089 59.9419C50.1689 59.6719 53.2289 59.6719 55.6089 60.5419C57.9889 61.4219 61.7289 63.0219 63.7289 62.6919C65.7289 62.3619 65.3789 62.0619 64.7589 61.4219C64.1389 60.7919 60.7889 60.4519 59.9889 60.3619C59.1889 60.2719 57.5189 60.3319 58.1689 59.5719C58.1689 59.5719 60.7289 59.7219 62.9889 59.7219C65.2489 59.7219 65.8389 59.7819 65.8989 58.7819C65.9589 57.7819 64.6289 57.7519 63.5789 57.7819V57.7719ZM50.1289 14.1919C50.0489 14.4219 49.9989 14.6719 49.9989 14.9319C49.9989 15.0719 50.0089 15.2019 50.0389 15.3319C50.1789 16.2519 50.8589 16.9619 51.6889 16.9619C52.6189 16.9619 53.3689 16.0819 53.3689 14.9919C53.3689 14.8519 53.3589 14.7219 53.3289 14.5919C53.2689 14.1719 53.0889 13.7919 52.8289 13.5119C55.3989 13.6219 57.6389 15.7119 57.4189 18.2519C57.1989 20.8419 55.0289 22.8419 52.6189 23.0019C49.9689 23.1719 47.8189 20.8819 47.8189 18.2519C47.8189 16.5319 48.7389 15.0319 50.1189 14.2019L50.1289 14.1919ZM23.3889 32.2819C20.9989 32.2819 19.4689 30.4119 19.4689 27.8519C19.4689 26.5519 19.9389 25.3519 20.7189 24.4819C20.7189 24.4919 20.7189 24.5119 20.7189 24.5219C20.7189 24.6019 20.6989 24.6819 20.6989 24.7719C20.6989 24.7919 20.6989 24.8019 20.6989 24.8219C20.6989 25.8919 21.4389 26.7519 22.3389 26.7519C23.2389 26.7519 23.9789 25.8919 23.9789 24.8219C23.9789 24.8219 23.9789 24.8119 23.9789 24.8019C23.9789 24.7919 23.9789 24.7719 23.9789 24.7619C23.9789 24.6919 23.9689 24.6319 23.9589 24.5619C23.9089 23.9719 23.6289 23.4519 23.2189 23.1419C23.3689 23.1219 23.5289 23.1119 23.6889 23.1119C26.0789 23.1119 28.0189 25.1919 28.0189 27.7519C28.0189 30.3119 25.7789 32.2719 23.3889 32.2719V32.2819ZM39.9589 35.4519C39.9589 35.4519 32.7889 37.3419 26.8889 34.4119C26.8889 34.4119 34.3089 36.8919 40.9689 34.5419C47.6289 32.2019 52.1989 26.0119 52.1989 26.0119C52.1989 26.0119 48.5189 33.6319 39.9589 35.4519Z" fill="white"/>
</svg>
