<svg width="86" height="44" viewBox="0 0 86 44" fill="none" xmlns="http://www.w3.org/2000/svg">
<path d="M44.0254 21.1845L47.3023 21.0677C47.4937 21.0677 47.6652 20.8942 47.6652 20.6839L47.7411 15.6941C48.4638 16.0613 49.3416 16.2515 50.1996 16.2515C52.6382 16.2515 54.8492 14.4792 54.8492 10.5675C54.8492 7.00291 52.5821 4.84346 49.9158 4.84346C49.1337 4.84346 48.4869 4.96027 47.9721 5.17054V4.45629C47.9919 4.24269 47.8203 4.08915 47.629 4.10918L43.9528 4.26271C43.7614 4.28273 43.5898 4.4563 43.5898 4.64654L43.6855 20.8141C43.6855 21.0277 43.8373 21.1812 44.0287 21.1812L44.0254 21.1845ZM49.2096 8.81525C50.1039 8.81525 50.6385 9.45273 50.6385 10.5308C50.6385 11.9192 50.0874 12.6902 49.2294 12.6902C48.4869 12.6902 47.8566 12.0361 47.8566 10.6676C47.8566 9.77982 48.3516 8.81859 49.2096 8.81859V8.81525Z" fill="#231F20"/>
<path d="M57.8686 13.4562C59.0808 13.4562 60.0499 12.4145 60.0499 11.1224C60.0499 9.83026 59.0841 8.80859 57.8686 8.80859C56.6531 8.80859 55.707 9.85029 55.707 11.1224C55.707 12.3944 56.6728 13.4562 57.8686 13.4562Z" fill="#231F20"/>
<path d="M55.7277 24.3302L59.1913 24.4274H59.2112C59.3438 24.4274 59.4797 24.3101 59.4797 24.1559L59.7283 14.6162C59.7283 14.462 59.5957 14.3246 59.4399 14.3246L55.4394 14.2676C55.2869 14.2676 55.1709 14.3849 55.1709 14.5391L55.4195 24.0419C55.4394 24.1961 55.5521 24.3335 55.7244 24.3335L55.7277 24.3302Z" fill="#231F20"/>
<path d="M62.0615 22.4755L65.6439 22.5724C65.7965 22.5724 65.9126 22.4387 65.9126 22.2817L65.8927 16.8209C65.8728 15.2201 66.314 14.5817 67.2892 14.5817C68.553 14.5817 68.6857 15.855 68.6857 19.3474C68.6857 20.8713 68.6658 21.7603 68.5696 22.4153V22.4354C68.5696 22.5122 68.626 22.5891 68.7222 22.5891L72.57 22.8598H72.5899C72.7226 22.8598 72.8188 22.7829 72.8387 22.666C72.915 22.1246 72.9714 20.7744 72.9714 18.4217C72.9714 12.864 71.1536 11.5539 68.3175 11.5539C67.3224 11.5539 66.5163 11.7678 65.8662 12.0953V11.4971C65.8463 11.3233 65.7335 11.2063 65.5776 11.1896L61.7662 11.1328C61.6137 11.1328 61.4976 11.2498 61.4976 11.4035V11.4236L61.7662 22.1881C61.7662 22.3418 61.8989 22.4788 62.0548 22.4788L62.0615 22.4755Z" fill="#231F20"/>
<path d="M85.8775 20.0584L81.7303 16.6243C81.6542 16.5676 81.6145 16.4707 81.6145 16.3738C81.6145 16.2769 81.6542 16.2001 81.7303 16.1233L85.7253 12.4787C85.7815 12.4219 85.8014 12.3618 85.8014 12.305C85.8014 12.2081 85.7253 12.1513 85.5929 12.0912L82.4221 10.8385H82.3459C82.154 10.8385 81.9256 10.9554 81.7932 11.069L79.1751 13.5778C79.1189 13.6345 79.0593 13.6746 79.0229 13.6746C78.9666 13.6746 78.9269 13.6178 78.9269 13.5009V13.4809L79.195 6.3655V6.34546C79.2148 6.1517 79.0427 5.99805 78.8508 5.99805H78.8309L75.1636 6.51917C74.9518 6.53922 74.783 6.69288 74.783 6.90333L74.687 21.251C74.687 21.4648 74.8591 21.6352 75.0511 21.6352L78.2815 21.712C78.4933 21.712 78.6621 21.5583 78.6621 21.3445V19.1264C78.6621 18.9928 78.7184 18.9327 78.7945 18.9327C78.8342 18.9327 78.8905 18.9527 78.9467 19.0095L82.8259 22.634C82.902 22.6908 83.0178 22.7509 83.1138 22.7509C83.2098 22.7509 83.3058 22.7108 83.3819 22.654L85.8841 20.5328C85.9603 20.4559 86 20.3791 86 20.2822C86 20.2054 85.9801 20.1085 85.8841 20.0517L85.8775 20.0584Z" fill="#231F20"/>
<path d="M50.9198 26.0916L51.4138 24.0305C51.4337 23.91 51.374 23.8899 51.2945 23.7895C50.5021 22.9096 48.8776 22.4277 48.0057 22.4277C46.0828 22.4277 44.3986 23.8096 44.3588 26.4094L44.3389 28.949L43.6062 28.9691C43.4869 28.9691 43.4073 29.0695 43.4073 29.1699L43.2681 31.8098V31.8299C43.2681 31.9303 43.3675 32.0106 43.467 32.0106L44.319 32.0508L44.2991 37.7925C44.2792 37.9731 44.3986 38.1538 44.5975 38.1538H44.6174L48.4433 37.9731H48.4632C48.6422 37.9731 48.7815 37.8125 48.7815 37.6318L48.7417 32.1913L50.0512 32.2515C50.1507 32.2515 50.2303 32.1511 50.2502 32.0508L50.4889 28.8085V28.7884C50.4889 28.6881 50.3894 28.6077 50.2899 28.6077L48.7251 28.7081V27.4467C48.7251 26.2656 49.1428 25.7269 49.6766 25.7269C50.0148 25.7269 50.3695 25.9075 50.7276 26.2656C50.7408 26.279 50.7541 26.2856 50.7673 26.2856C50.827 26.2856 50.9464 26.1853 50.9464 26.105H50.9265V26.0849L50.9198 26.0916Z" fill="#231F20"/>
<path d="M59.8364 30.2792C59.8563 29.8004 59.9961 27.1748 59.9961 26.7562V26.7361C59.9961 26.6356 59.8963 26.5954 59.8364 26.5753C59.6766 26.5552 59.4969 26.5352 59.2806 26.5352C58.3854 26.5352 57.0709 26.8566 56.3753 27.8379C56.3554 27.8781 56.3354 27.8982 56.3354 27.8982C56.3154 27.8982 56.3154 27.858 56.3154 27.8178V27.3389C56.3154 27.1179 56.2555 27.0576 55.996 27.0576L52.5749 26.8968H52.5549C52.3952 26.8968 52.2754 27.0174 52.2754 27.1781V27.1982L52.6348 38.0688C52.6348 38.2497 52.7746 38.3702 52.9343 38.3702H52.9543L56.3354 38.2899C56.5151 38.2899 56.6549 38.1492 56.6549 37.9684C56.6549 35.9255 56.6349 34.3448 56.6349 34.3448C56.6149 31.8834 57.5102 30.5204 59.64 30.4601C59.7598 30.44 59.8397 30.3797 59.8397 30.2792H59.8364Z" fill="#231F20"/>
<path d="M66.789 36.5851C69.7895 36.5851 71.9526 34.3913 71.9526 30.6238C71.9526 26.5162 69.6499 24.4258 66.47 24.4258C63.0343 24.4258 60.9077 26.7563 60.9077 30.6238C60.9077 34.4913 63.7886 36.5851 66.789 36.5851ZM66.3936 28.8501C67.2077 28.8501 67.8822 29.5669 67.8822 30.6038C67.8822 31.7007 67.3273 32.4376 66.4534 32.4376C65.5795 32.4376 64.8851 31.7807 64.8851 30.7238C64.8851 29.6669 65.4001 28.8501 66.3936 28.8501Z" fill="#231F20"/>
<path d="M84.2168 25.8103L80.4434 25.6699C80.244 25.6699 80.1045 25.8103 80.1045 26.0109L80.1245 26.5892C79.4502 26.2081 78.6363 25.9307 77.7627 25.9307C75.1219 25.9307 72.7568 28.1302 72.7568 31.4462C72.7568 34.9628 74.7233 37.1824 77.7029 37.1824C78.7758 37.1824 79.6893 36.8014 80.2839 36.2231L80.3038 36.564L80.264 36.9451C80.1245 38.6633 79.6893 39.3218 78.437 39.3218C77.5235 39.3218 76.8293 38.6633 76.63 38.4627C76.5901 38.4226 76.5503 38.4025 76.5303 38.4025C76.4307 38.4025 76.3709 38.4828 76.3709 38.6031L76.3111 41.9793V41.9994C76.3111 42.0997 76.331 42.1999 76.4307 42.2802C76.8692 42.6813 78.0185 43.1794 79.3106 43.1794C81.8318 43.1794 83.8581 41.7019 84.0175 38.4025L84.5523 26.1713C84.5523 25.9708 84.4128 25.8304 84.2135 25.8103H84.2168ZM78.8556 33.3048C78.0617 33.3048 77.3873 32.6663 77.3873 31.6468C77.3873 30.6273 77.9819 29.8885 78.8755 29.8885C79.5498 29.8885 80.2075 30.3298 80.2075 30.9081L80.2274 31.8273C80.2274 32.8067 79.4335 33.3048 78.8556 33.3048Z" fill="#231F20"/>
<path d="M56.5122 40.3223H58.2592V40.6364H56.847V41.5753H58.1598V41.8893H56.847V43.1657H56.5122V40.3256V40.3223Z" fill="#010101"/>
<path d="M58.9951 40.3223H59.3299V43.1624H58.9951V40.3223Z" fill="#010101"/>
<path d="M60.3013 40.3223H60.6361V42.8483H61.9256V43.1624H60.3013V40.3223Z" fill="#010101"/>
<path d="M62.559 40.3223H63.0562L64.011 42.5476H64.0176L64.9789 40.3223H65.4629V43.1624H65.1281V40.78H65.1215L64.1104 43.1624H63.9082L62.8971 40.78H62.8905V43.1624H62.5557V40.3223H62.559Z" fill="#010101"/>
<path d="M67.7764 40.8236C67.7201 40.7334 67.6472 40.6665 67.5543 40.6264C67.4615 40.5863 67.3654 40.563 67.2626 40.563C67.1897 40.563 67.1168 40.573 67.0438 40.5897C66.9709 40.6097 66.9079 40.6365 66.8516 40.6732C66.7952 40.71 66.7488 40.7601 66.7156 40.8202C66.6825 40.8804 66.6626 40.9539 66.6626 41.0374C66.6626 41.1009 66.6725 41.1577 66.6924 41.2078C66.7123 41.2579 66.7455 41.3014 66.7886 41.3415C66.835 41.3816 66.8947 41.4183 66.9709 41.4551C67.0471 41.4885 67.1433 41.5253 67.2527 41.5587C67.3621 41.5921 67.4681 41.6322 67.5676 41.6723C67.6704 41.7124 67.7599 41.7625 67.8394 41.826C67.919 41.8861 67.9787 41.963 68.0251 42.0565C68.0715 42.1501 68.0947 42.2637 68.0947 42.404C68.0947 42.5444 68.0682 42.668 68.0118 42.7716C67.9555 42.8752 67.8825 42.962 67.7897 43.0289C67.6969 43.0957 67.5941 43.1491 67.4748 43.1825C67.3554 43.216 67.2328 43.2327 67.1035 43.2327C67.0206 43.2327 66.9377 43.226 66.8582 43.2093C66.7753 43.1959 66.6958 43.1725 66.6228 43.1425C66.5466 43.1124 66.477 43.0723 66.4107 43.0222C66.3444 42.9721 66.288 42.9119 66.2383 42.8384L66.5234 42.6012C66.583 42.7047 66.6692 42.7849 66.7786 42.8384C66.888 42.8919 67.004 42.9186 67.1234 42.9186C67.1963 42.9186 67.2659 42.9086 67.3389 42.8852C67.4118 42.8651 67.4781 42.8317 67.5345 42.7916C67.5908 42.7515 67.6405 42.6981 67.677 42.6379C67.7135 42.5778 67.7333 42.5043 67.7333 42.4241C67.7333 42.3372 67.7201 42.2637 67.6903 42.2102C67.6604 42.1568 67.6173 42.1066 67.5543 42.0665C67.4914 42.0265 67.4151 41.9897 67.3223 41.9596C67.2295 41.9262 67.1201 41.8895 66.9974 41.846C66.898 41.8126 66.8051 41.7759 66.719 41.7358C66.6328 41.6957 66.5598 41.6422 66.4969 41.5821C66.4339 41.5219 66.3841 41.4484 66.351 41.3649C66.3178 41.2813 66.2979 41.1811 66.2979 41.0608C66.2979 40.9238 66.3245 40.8069 66.3775 40.7033C66.4305 40.6031 66.5035 40.5162 66.593 40.4493C66.6825 40.3825 66.7853 40.3291 66.898 40.2956C67.0107 40.2622 67.13 40.2422 67.256 40.2422C67.4151 40.2422 67.561 40.2656 67.6903 40.3157C67.8229 40.3658 67.9389 40.4527 68.0416 40.573L67.7665 40.8136L67.7764 40.8236Z" fill="#010101"/>
<path d="M0.923136 28.5654C2.05065 32.8015 6.14948 38.5955 12.1717 40.8021C18.1177 42.9819 23.9509 43.6907 32.0027 38.201C48.7528 26.7801 36.589 4.97479 36.589 4.97479L34.0488 5.87749L30.4938 7.25829L34.6424 3.36665C34.6424 3.36665 30.4606 -1.19368 16.0252 0.300794C4.41842 1.50105 1.03257 12.0058 0.495347 14.8912C-0.831138 22.0025 0.926455 28.5654 0.926455 28.5654H0.923136Z" fill="#231F20"/>
<path d="M32.1047 29.4174C31.5713 29.4341 30.3389 29.8018 29.8916 29.7249C29.4443 29.648 29.2985 29.3873 29.7127 29.247C30.1268 29.1099 31.24 29.1534 31.9093 28.9695C32.5785 28.7857 33.2147 28.4481 33.2312 28.0939C33.2445 27.7396 32.6216 27.6928 32.1478 27.7696C31.674 27.8465 30.1434 28.4615 29.2389 28.8626C28.3344 29.2637 27.6353 29.4943 26.9098 29.4776C26.1809 29.4609 26.1246 29.2937 26.3598 29.14C26.595 28.9862 29.8783 27.5424 32.1478 23.8658C34.4173 20.1893 33.8541 19.5743 33.4996 19.0696C33.1418 18.5616 32.0882 18.224 30.6337 18.7454C29.1793 19.2668 26.3896 21.0516 26.3896 21.0516C26.3896 21.0516 26.2571 20.8043 26.0185 20.5737C26.0185 20.5737 27.9037 18.7889 28.0362 16.0215C28.1555 13.5782 27.1152 12.4686 27.1152 12.4686C27.1152 12.4686 28.9109 11.7767 29.3549 9.77805C29.7988 7.77935 28.6856 6.59618 26.9495 6.44243C25.2135 6.28868 23.6232 7.54874 23.4177 9.00932C23.4177 9.00932 20.5221 8.2573 17.8517 9.34689C17.8517 9.34689 15.6385 10.0087 13.8892 11.9472C13.8892 11.9472 12.5838 10.6872 10.6092 11.5461C8.63457 12.4084 8.95264 14.6946 9.33365 15.3597C9.71466 16.0248 10.1354 17.1445 11.633 17.2347C11.633 17.2347 11.454 19.0496 12.554 20.2963C12.554 20.2963 10.8908 19.5576 9.06528 20.8177C7.23975 22.0777 9.13817 24.678 9.88031 25.3231C10.6224 25.9682 13.4419 27.4455 13.6937 27.7229C13.9455 28.0003 13.8527 28.4114 13.3657 28.3679C12.882 28.3245 12.0603 27.8298 11.5236 27.3853C10.9902 26.9408 9.45954 25.8779 8.61469 25.8946C7.76985 25.9113 7.75328 26.3258 8.08128 26.4929C8.40928 26.6634 10.6225 27.656 10.9173 27.9234C11.2122 28.1908 11.3315 28.4014 11.0797 28.3846C10.8279 28.3679 9.08185 27.6794 8.12435 27.7095C7.16686 27.7396 7.05422 27.7095 7.0244 28.0337C6.99458 28.3579 7.66383 28.7723 8.41922 28.8191C9.17461 28.8659 10.2878 28.7122 10.6887 28.9428C11.0896 29.1734 11.0167 29.5277 10.7483 29.6514C10.48 29.775 9.62188 29.5912 8.83336 29.6681C8.04815 29.745 7.71684 29.9789 7.64726 30.0692C7.57769 30.1561 7.24637 30.5003 8.65777 30.6541C10.0692 30.8078 11.2122 30.4067 12.7826 30.0224C14.3563 29.638 15.0057 29.2971 14.8003 30.5137C14.6512 31.3894 12.5441 32.6661 12.5308 32.8366C12.5176 33.007 12.501 33.4816 12.945 33.2978C13.3889 33.114 14.5319 31.6066 14.7108 31.6534C14.8898 31.7002 15.009 31.5932 14.8434 32.2684C14.681 32.9435 14.3862 33.983 14.5021 34.3607C14.6181 34.735 14.7705 34.8821 15.0952 34.5612C15.4232 34.237 15.453 33.4549 15.4364 33.0237C15.4232 32.5926 15.2144 31.9308 15.4364 31.6567C15.6584 31.3793 15.9102 31.7336 15.9864 31.8874C16.0593 32.0411 16.278 32.9001 16.4469 33.1641C16.6159 33.4282 16.6557 33.8259 17.0565 33.5953C17.4574 33.3647 16.3873 31.366 16.2249 31.0886C16.0626 30.8112 15.4033 29.902 15.2741 28.8292C15.2741 28.8292 17.3978 31.0585 19.4586 31.259C21.5226 31.4596 22.7385 30.751 22.7385 30.751C22.7385 30.751 21.9235 31.5364 21.241 31.9642C20.5585 32.3954 19.4155 33.3312 19.3426 33.6254C19.2697 33.9161 19.6706 34.12 19.9953 33.7791C20.32 33.4382 20.9296 32.733 21.3769 32.5491C21.8208 32.3653 21.7049 33.0405 21.4961 33.8092C21.2874 34.5779 21.4232 35.3934 21.5856 35.6241C21.7479 35.8547 22.0461 35.8848 22.2084 35.2397C22.3708 34.5946 22.1654 33.5485 22.3874 32.9335C22.6093 32.3185 23.0268 32.8867 23.1162 33.0572C23.2057 33.2276 23.7259 34.227 23.9777 34.2704C24.2295 34.3172 24.5276 34.3005 24.5276 33.7791C24.5276 33.2577 23.3714 32.7965 23.2521 32.1481C23.1328 31.503 23.7557 30.6574 24.5442 30.517C25.3294 30.38 26.8733 30.38 28.076 30.8245C29.2787 31.269 31.1638 32.0846 32.1743 31.9174C33.1848 31.747 33.0059 31.5932 32.6945 31.2724C32.3831 30.9482 30.6901 30.7811 30.2892 30.7343C29.8883 30.6875 29.0434 30.7176 29.3681 30.3332C29.3681 30.3332 30.6602 30.4101 31.8033 30.4101C32.9463 30.4101 33.2445 30.4401 33.2743 29.9321C33.3041 29.4241 32.6349 29.4107 32.1014 29.4241L32.1047 29.4174ZM25.3162 7.23456C25.2764 7.35154 25.2532 7.47854 25.2532 7.61223C25.2532 7.68242 25.2598 7.74927 25.2698 7.81612C25.3394 8.28738 25.6839 8.645 26.1014 8.645C26.5685 8.645 26.9495 8.19714 26.9495 7.64231C26.9495 7.57213 26.9429 7.50528 26.9296 7.43844C26.8965 7.22119 26.8071 7.03068 26.6779 6.88696C27.9733 6.94044 29.1064 8.00329 28.9937 9.3001C28.8811 10.6203 27.7911 11.6397 26.5718 11.7166C25.2366 11.8001 24.1499 10.6337 24.1499 9.3001C24.1499 8.42776 24.6138 7.66237 25.3128 7.2379L25.3162 7.23456ZM11.8251 16.4426C10.6158 16.4426 9.84718 15.49 9.84718 14.1865C9.84718 13.5248 10.0857 12.9131 10.4767 12.4719C10.4767 12.4786 10.4767 12.4853 10.4767 12.492C10.4734 12.5321 10.4667 12.5756 10.4667 12.619C10.4667 12.619 10.4667 12.619 10.4667 12.6223C10.4667 12.6324 10.4667 12.6391 10.4667 12.6491C10.4667 13.1905 10.8378 13.6317 11.295 13.6317C11.7522 13.6317 12.1233 13.1905 12.1233 12.6491C12.1233 12.6491 12.1233 12.6424 12.1233 12.6391C12.1233 12.6324 12.1233 12.6257 12.1233 12.619C12.1233 12.5856 12.1167 12.5522 12.1134 12.5154C12.1134 12.5154 12.1134 12.5154 12.1134 12.512C12.0869 12.2079 11.9444 11.9472 11.739 11.7901C11.8152 11.7801 11.8947 11.7734 11.9742 11.7734C13.1835 11.7734 14.1609 12.8296 14.1609 14.1364C14.1609 15.4433 13.0311 16.4393 11.8251 16.4393V16.4426ZM20.1874 18.0536C20.1874 18.0536 16.5728 19.0162 13.5943 17.5222C13.5943 17.5222 17.3382 18.7822 20.6977 17.589C24.0572 16.3958 26.3631 13.2474 26.3631 13.2474C26.3631 13.2474 24.5078 17.1278 20.1874 18.0536Z" fill="#4FB851"/>
</svg>
